# xmcd
#
# Track frame offsets:
#	150
#	16125
#	31075
#	50685
#	66135
#	83697
#	102445
#	117795
#	134350
#	148625
#
# Disc length: 2164 seconds
#
# Revision: 0
# Processed by: cddbd v1.5.2PL0 Copyright (c) Steve Scherf et al.
# Submitted via: EZCDAudioConverter 1.2.3.1
#
DISCID=7f08720a
DTITLE=Axé Music - Grandes Sucessos 4
DYEAR=1900
DGENRE=Axé
TTITLE0=Beijo na boca
TTITLE1=Música de Rua
TTITLE2=Baianidade Nagô
TTITLE3=Vem meu amor
TTITLE4=Pra levantar poeira
TTITLE5=Swing da cor
TTITLE6=Estrela primeira
TTITLE7=Crença e fê
TTITLE8=Nossa gente (Avisa lá)
TTITLE9=Aconteceu
EXTD=
EXTT0=
EXTT1=
EXTT2=
EXTT3=
EXTT4=
EXTT5=
EXTT6=
EXTT7=
EXTT8=
EXTT9=
PLAYORDER=
